<svg width="200" height="200" viewBox="0 0 200 200" fill="none" xmlns="http://www.w3.org/2000/svg">
<g clip-path="url(#clip0_627_6)">
<path d="M197.167 89.4992L157.81 21.2013C155.947 17.9573 153.261 15.2623 150.023 13.3886C146.785 11.5148 143.111 10.5286 139.37 10.5296H60.6566C56.9406 10.5025 53.2825 11.4499 50.0469 13.2774C46.8114 15.105 44.1114 17.7487 42.2162 20.9451L2.85941 89.2431C0.986177 92.4876 0 96.1681 0 99.9146C0 103.661 0.986177 107.341 2.85941 110.586L42.2162 178.884C44.0965 182.106 46.7886 184.779 50.0242 186.637C53.2598 188.494 56.9257 189.471 60.6566 189.47H139.37C143.076 189.497 146.725 188.559 149.958 186.748C153.192 184.937 155.898 182.315 157.81 179.14L197.167 110.842C199.023 107.592 200 103.914 200 100.171C200 96.4276 199.023 92.7493 197.167 89.4992Z" fill="#403F3A"/>
</g>
<defs>
<clipPath id="clip0_627_6">
<rect width="200" height="200" fill="white"/>
</clipPath>
</defs>
</svg>
