<svg width="200" height="200" viewBox="0 0 200 200" fill="none" xmlns="http://www.w3.org/2000/svg">
<path d="M21.0533 121.708L72.9356 42.4745C75.8788 38.0249 79.8787 34.3738 84.5779 31.848C89.2769 29.3221 94.5287 28.0001 99.8637 28.0001C105.199 28.0001 110.451 29.3221 115.15 31.848C119.849 34.3738 123.849 38.0249 126.792 42.4745L178.674 121.285C181.88 126.15 183.71 131.792 183.968 137.612C184.227 143.433 182.908 149.215 180.147 154.346C177.387 159.477 173.288 163.765 168.289 166.756C163.288 169.746 157.573 171.329 151.746 171.335H47.9814C42.2212 171.28 36.5802 169.685 31.6439 166.716C26.7076 163.747 22.6557 159.512 19.9084 154.448C17.161 149.385 15.8184 143.679 16.0197 137.922C16.2211 132.165 17.959 126.567 21.0533 121.708Z" fill="#403F3A" stroke="#403F3A" stroke-width="26.88" stroke-linecap="round" stroke-linejoin="round"/>
</svg>
