<svg width="24" height="25" viewBox="0 0 24 25" fill="none" xmlns="http://www.w3.org/2000/svg">
<g id="Icon / Cart">
<path id="Vector" d="M1 3H2.65424C3.13263 3 3.37183 3 3.56628 3.08674C3.73771 3.16321 3.88415 3.28638 3.98886 3.44217C4.10763 3.61888 4.14862 3.85454 4.23058 4.32585L4.6087 6.5M4.6087 6.5L5.49173 11.5774C5.67091 12.6077 5.7605 13.1228 6.02583 13.4939C6.25945 13.8207 6.58606 14.0695 6.96311 14.208C7.39133 14.3654 7.91176 14.315 8.95264 14.2143L18.614 13.2793C19.6298 13.181 20.1378 13.1318 20.5221 12.9033C20.8653 12.6993 21.1395 12.3972 21.3095 12.036C21.5 11.6314 21.5 11.1211 21.5 10.1005V10.1005C21.5 9.01582 21.5 8.47348 21.2922 8.05394C21.1068 7.67971 20.809 7.3729 20.4404 7.17654C20.0272 6.9564 19.4851 6.94036 18.4009 6.90826L4.6087 6.5Z" stroke="#262F56" stroke-width="1.8" stroke-linecap="round" stroke-linejoin="round"/>
<circle id="Ellipse" cx="8.5" cy="19.5" r="2" stroke="#262F56" stroke-width="1.8"/>
<circle id="Ellipse_2" cx="18" cy="19.5" r="2" stroke="#262F56" stroke-width="1.8"/>
</g>
</svg>
