<svg width="264" height="262" viewBox="0 0 264 262" fill="none" xmlns="http://www.w3.org/2000/svg">
<g clip-path="url(#clip0_109_76)">
<path d="M260.26 117.244L208.309 27.7737C205.85 23.524 202.304 19.9937 198.031 17.5391C193.757 15.0845 188.906 13.7925 183.968 13.7938H80.0666C75.1615 13.7582 70.3328 14.9994 66.0618 17.3934C61.7909 19.7875 58.2269 23.2508 55.7252 27.4381L3.7743 116.908C1.30163 121.159 -0.00012207 125.98 -0.00012207 130.888C-0.00012207 135.796 1.30163 140.617 3.7743 144.868L55.7252 234.338C58.2072 238.559 61.7609 242.061 66.0318 244.494C70.3028 246.928 75.1419 248.207 80.0666 248.206H183.968C188.86 248.242 193.677 247.013 197.945 244.64C202.213 242.267 205.785 238.832 208.309 234.674L260.26 145.203C262.711 140.946 264 136.127 264 131.224C264 126.32 262.711 121.502 260.26 117.244Z" fill="#403F3A"/>
</g>
<defs>
<clipPath id="clip0_109_76">
<rect width="264" height="262" fill="white"/>
</clipPath>
</defs>
</svg>
